<svg width="30" height="30" viewBox="0 0 30 30" fill="none" xmlns="http://www.w3.org/2000/svg">
<path id="Vector" d="M15 0C6.66667 0 0 6.66667 0 15C0 23.3333 6.66667 30 15 30C23.3333 30 30 23.3333 30 15C30 6.66667 23.3333 0 15 0ZM15 11.6667C16.8333 11.6667 18.3333 13.1667 18.3333 15C18.3333 16.8333 16.8333 18.3333 15 18.3333C13.1667 18.3333 11.6667 16.8333 11.6667 15C11.6667 13.1667 13.1667 11.6667 15 11.6667ZM19.6667 8.33333C19.6667 7.16667 20.6667 6.33333 21.6667 6.33333C22.6667 6.33333 23.6667 7.33333 23.6667 8.33333C23.6667 9.33333 22.8333 10.3333 21.6667 10.3333C20.5 10.3333 19.6667 9.5 19.6667 8.33333ZM15 26.6667C8.5 26.6667 3.33333 21.5 3.33333 15H8.33333C8.33333 18.6667 11.3333 21.6667 15 21.6667C18.6667 21.6667 21.6667 18.6667 21.6667 15H26.6667C26.6667 21.5 21.5 26.6667 15 26.6667Z" fill="#5C5C5E"/>
</svg>
